<?xml version="1.0" standalone="no"?>
<!DOCTYPE svg PUBLIC "-//W3C//DTD SVG 20010904//EN"
 "http://www.w3.org/TR/2001/REC-SVG-20010904/DTD/svg10.dtd">
<svg version="1.0" xmlns="http://www.w3.org/2000/svg"
 width="700.000000pt" height="700.000000pt" viewBox="0 0 700.000000 700.000000"
 preserveAspectRatio="xMidYMid meet">
<metadata>
Created by potrace 1.14, written by Peter Selinger 2001-2017
</metadata>
<g transform="translate(0.000000,700.000000) scale(0.100000,-0.100000)"
fill="#000000" stroke="none">
<path d="M3898 6991 c-41 -13 -80 -41 -109 -75 -14 -17 -655 -870 -1425 -1896
-1069 -1425 -1402 -1877 -1416 -1916 -40 -119 20 -242 140 -286 43 -16 132
-17 1091 -18 l1043 0 -6 -51 c-4 -29 -8 -54 -10 -58 -2 -3 -7 -28 -10 -56 -4
-27 -9 -59 -12 -70 -2 -11 -6 -33 -8 -50 -2 -16 -32 -196 -66 -400 -34 -203
-64 -383 -66 -400 -3 -16 -10 -57 -16 -90 -5 -33 -12 -71 -14 -85 -5 -30 -15
-88 -20 -115 -2 -11 -15 -92 -29 -180 -14 -88 -28 -171 -30 -185 -3 -14 -10
-52 -15 -85 -5 -33 -12 -71 -15 -85 -2 -14 -9 -54 -15 -90 -11 -72 -18 -112
-25 -150 -3 -14 -7 -43 -10 -65 -3 -22 -10 -65 -16 -95 -5 -30 -12 -73 -15
-95 -3 -22 -9 -54 -13 -71 -5 -16 -8 -60 -7 -96 2 -83 39 -149 107 -191 85
-52 205 -44 273 19 15 15 663 873 1439 1908 1053 1404 1416 1894 1429 1931 36
107 -13 226 -117 283 -27 16 -125 17 -1093 20 l-1063 2 4 43 c3 23 14 94 26
157 11 63 23 135 26 160 4 25 11 68 16 95 5 28 12 66 15 85 3 19 14 89 25 155
11 66 22 134 25 150 2 17 9 53 14 80 6 28 12 67 15 89 2 21 7 46 9 55 3 9 7
34 11 56 7 47 24 157 31 200 7 40 9 53 43 255 16 96 32 193 36 215 3 23 8 52
10 65 3 14 10 54 15 90 6 36 12 74 14 85 15 82 26 146 31 180 3 22 7 47 10 55
2 8 6 35 10 60 3 25 12 79 19 120 31 171 -3 267 -114 325 -36 19 -134 28 -172
16z m-343 -1281 c-13 -74 -26 -155 -30 -180 -3 -25 -8 -52 -11 -61 -3 -10 -6
-31 -9 -49 -2 -17 -6 -43 -9 -58 -3 -15 -8 -45 -11 -67 -3 -22 -10 -67 -16
-100 -6 -33 -13 -71 -15 -85 -7 -45 -14 -85 -18 -106 -2 -12 -7 -45 -11 -75
-4 -30 -9 -57 -11 -60 -2 -3 -6 -24 -9 -47 -2 -22 -16 -107 -30 -189 -14 -81
-28 -161 -31 -178 -2 -16 -9 -55 -14 -85 -5 -30 -12 -73 -15 -95 -5 -39 -9
-61 -20 -115 -14 -72 -17 -91 -22 -163 -5 -63 -2 -86 13 -120 26 -58 56 -89
112 -118 l47 -24 953 -1 c523 0 954 -3 957 -6 3 -3 -1361 -1834 -1412 -1893
-5 -5 -37 -48 -71 -95 -35 -47 -73 -98 -86 -115 -13 -16 -79 -104 -147 -195
-68 -91 -127 -169 -131 -175 -5 -5 -25 -31 -45 -58 -20 -26 -37 -46 -38 -45
-2 2 13 91 31 198 19 107 36 212 39 232 2 20 21 131 41 245 19 114 37 223 40
240 2 18 11 72 20 120 15 87 19 108 28 168 2 17 14 89 26 160 11 72 23 144 26
160 3 17 11 66 19 110 8 44 17 101 21 127 3 26 9 60 13 75 11 41 -6 129 -33
171 -28 46 -87 87 -141 100 -25 6 -389 9 -963 9 -507 -1 -930 0 -938 3 -12 5
-7 16 23 55 20 28 41 55 46 60 4 6 53 71 108 145 55 74 111 149 123 165 13 17
234 311 492 655 257 344 472 630 477 635 4 6 52 69 105 141 53 72 107 144 120
160 12 16 113 150 223 297 111 148 202 267 204 265 2 -2 -7 -64 -20 -138z"/>
</g>
</svg>
